<svg xmlns="http://www.w3.org/2000/svg" viewBox="0 0 1200 800" role="img" aria-label="Cow Hostel placeholder image">
  <defs><linearGradient id="g" x1="0" y1="0" x2="1" y2="1"><stop stop-color="#2f5d3a"/><stop offset="1" stop-color="#b79b68"/></linearGradient></defs>
  <rect width="1200" height="800" fill="url(#g)"/>
  <circle cx="920" cy="170" r="78" fill="#f7f3e9" opacity=".7"/>
  <path d="M0 520 C190 420 310 470 480 520 C650 570 820 490 1200 430 L1200 800 L0 800Z" fill="#20452c" opacity=".85"/>
  <g fill="#f7f3e9" opacity=".92" stroke="#263128" stroke-width="10">
    <ellipse cx="530" cy="515" rx="120" ry="72"/><circle cx="405" cy="500" r="55"/><path d="M375 462 l-42 -38 l22 62"/><path d="M430 462 l35 -42 l5 58"/><path d="M495 570 v120 M575 570 v120" fill="none"/><path d="M350 545 l-42 34 M620 540 l50 24" fill="none"/>
  </g>
  <text x="60" y="100" fill="#fff" font-family="Georgia,serif" font-size="54" font-weight="700">Cow Hostel</text>
  <text x="60" y="148" fill="#fff" opacity=".8" font-family="Arial,sans-serif" font-size="24">PLACEHOLDER IMAGE — REPLACE WITH YOUR PHOTOGRAPHY</text>
</svg>
